<?xml version="1.0" standalone="no"?>
<!DOCTYPE svg PUBLIC "-//W3C//DTD SVG 20010904//EN"
 "http://www.w3.org/TR/2001/REC-SVG-20010904/DTD/svg10.dtd">
<svg version="1.0" xmlns="http://www.w3.org/2000/svg"
 width="512.000000pt" height="512.000000pt" viewBox="0 0 512.000000 512.000000"
 preserveAspectRatio="xMidYMid meet">
<metadata>
Created by potrace 1.14, written by Peter Selinger 2001-2017
</metadata>
<g transform="translate(0.000000,512.000000) scale(0.100000,-0.100000)"
fill="#000000" stroke="none">
<path d="M1467 3723 c-4 -3 -7 -303 -7 -665 l0 -658 55 0 55 0 0 665 0 665
-48 0 c-27 0 -52 -3 -55 -7z"/>
<path d="M1010 2975 l0 -575 55 0 55 0 0 575 0 575 -55 0 -55 0 0 -575z"/>
<path d="M1760 2945 l0 -545 55 0 55 0 0 545 0 545 -55 0 -55 0 0 -545z"/>
<path d="M1310 2940 l0 -540 55 0 55 0 0 540 0 540 -55 0 -55 0 0 -540z"/>
<path d="M1610 2880 l0 -480 55 0 55 0 0 480 0 480 -55 0 -55 0 0 -480z"/>
<path d="M1167 3173 c-4 -3 -7 -179 -7 -390 l0 -383 55 0 55 0 0 390 0 390
-48 0 c-27 0 -52 -3 -55 -7z"/>
<path d="M1917 3173 c-4 -3 -7 -179 -7 -390 l0 -383 55 0 55 0 0 390 0 390
-48 0 c-27 0 -52 -3 -55 -7z"/>
<path d="M2067 3173 c-4 -3 -7 -179 -7 -390 l0 -383 55 0 55 0 0 390 0 390
-48 0 c-27 0 -52 -3 -55 -7z"/>
<path d="M2217 3173 c-4 -3 -7 -179 -7 -390 l0 -383 55 0 55 0 0 390 0 390
-48 0 c-27 0 -52 -3 -55 -7z"/>
<path d="M2360 2785 l0 -385 55 0 55 0 0 385 0 385 -55 0 -55 0 0 -385z"/>
<path d="M3560 2765 l0 -365 55 0 55 0 0 365 0 365 -55 0 -55 0 0 -365z"/>
<path d="M3710 2745 l0 -345 55 0 55 0 0 345 0 345 -55 0 -55 0 0 -345z"/>
<path d="M2510 2660 l0 -260 55 0 55 0 0 260 0 260 -55 0 -55 0 0 -260z"/>
<path d="M2660 2660 l0 -260 55 0 55 0 0 260 0 260 -55 0 -55 0 0 -260z"/>
<path d="M2810 2660 l0 -260 55 0 55 0 0 260 0 260 -55 0 -55 0 0 -260z"/>
<path d="M4250 1849 l0 -290 28 3 27 3 5 136 c5 142 15 175 60 199 36 19 91 8
114 -23 19 -25 21 -45 24 -173 l3 -144 30 0 29 0 0 143 c0 78 -5 159 -10 179
-16 55 -51 78 -121 78 -51 0 -63 -4 -94 -31 l-35 -31 0 121 0 121 -30 0 -30 0
0 -291z"/>
<path d="M560 1835 l0 -275 30 0 30 0 0 105 0 105 53 0 c98 0 169 35 202 101
22 41 19 127 -5 167 -32 53 -87 72 -207 72 l-103 0 0 -275z m213 204 c31 -14
51 -51 51 -94 0 -75 -51 -115 -148 -115 l-56 0 0 110 0 110 65 0 c35 0 75 -5
88 -11z"/>
<path d="M2980 1836 l0 -276 63 0 c107 1 198 18 247 48 98 60 143 167 122 290
-15 88 -49 142 -114 177 -49 27 -62 30 -185 33 l-133 4 0 -276z m265 195 c22
-10 48 -28 58 -39 51 -57 62 -179 22 -258 -39 -78 -111 -113 -232 -114 l-53 0
0 215 0 215 83 0 c58 0 94 -6 122 -19z"/>
<path d="M990 1760 l0 -200 30 0 30 0 0 120 c0 173 22 220 104 220 33 0 36 2
36 30 0 27 -3 30 -31 30 -41 0 -66 -15 -89 -53 l-20 -32 0 43 c0 40 -1 42 -30
42 l-30 0 0 -200z"/>
<path d="M1303 1945 c-27 -11 -33 -20 -33 -45 l0 -30 40 20 c42 22 100 26 130
10 16 -9 47 -77 38 -84 -1 -2 -39 -9 -82 -15 -44 -6 -94 -20 -112 -32 -63 -39
-70 -135 -13 -183 25 -21 41 -26 84 -26 46 0 59 5 90 31 l35 31 0 -31 c0 -28
3 -31 30 -31 l30 0 0 143 c0 170 -9 211 -53 237 -39 24 -135 26 -184 5z m177
-210 c0 -38 -25 -90 -51 -109 -30 -21 -87 -21 -111 1 -22 20 -24 76 -3 97 9 8
32 18 53 21 20 4 42 8 47 10 6 2 22 4 38 4 22 1 27 -3 27 -24z"/>
<path d="M1735 1948 c-43 -23 -76 -64 -90 -112 -28 -94 -14 -175 39 -233 28
-31 40 -37 89 -41 66 -5 108 9 139 47 l21 26 -6 -58 c-10 -98 -52 -140 -140
-140 -29 0 -69 7 -89 16 l-38 16 0 -29 c0 -37 24 -50 99 -57 110 -10 196 38
220 122 6 23 11 128 11 248 l0 207 -30 0 c-25 0 -30 -4 -30 -25 l0 -24 -36 24
c-40 27 -122 34 -159 13z m143 -54 c50 -35 68 -135 38 -208 -32 -78 -118 -101
-178 -47 -28 25 -32 35 -36 94 -5 83 11 133 52 158 38 23 94 25 124 3z"/>
<path d="M2110 1823 c0 -160 9 -202 51 -237 24 -21 41 -26 82 -26 54 0 116 28
118 52 1 7 4 0 8 -17 5 -23 12 -31 34 -33 l27 -3 0 201 0 201 -27 -3 -28 -3
-5 -143 -5 -144 -33 -29 c-34 -31 -77 -38 -114 -18 -36 20 -48 69 -48 209 l0
130 -30 0 -30 0 0 -137z"/>
<path d="M2630 1942 c-19 -10 -48 -41 -65 -67 -26 -42 -29 -56 -29 -120 1
-132 60 -195 183 -195 81 0 131 24 131 61 l0 28 -42 -19 c-83 -38 -167 -18
-194 45 -27 66 -28 65 121 65 l135 0 0 50 c0 60 -18 106 -54 140 -37 33 -135
40 -186 12z m144 -54 c15 -13 29 -38 32 -55 l7 -33 -108 0 c-94 0 -106 2 -101
16 3 9 6 20 6 26 0 5 14 23 31 39 40 37 96 40 133 7z"/>
<path d="M3563 1945 c-27 -11 -33 -20 -33 -45 l0 -30 37 20 c78 42 163 16 163
-49 0 -28 -1 -29 -77 -40 -85 -13 -132 -35 -150 -72 -16 -31 -16 -81 -1 -114
26 -58 127 -74 191 -31 l36 25 3 -22 c2 -17 10 -22 33 -22 l30 0 0 150 c0 167
-10 206 -56 230 -35 19 -134 19 -176 0z m167 -229 c0 -61 -43 -106 -101 -106
-104 0 -106 118 -2 135 21 4 43 8 48 10 6 2 20 4 33 4 20 1 22 -4 22 -43z"/>
<path d="M3964 1950 c-11 -4 -33 -23 -48 -41 -23 -27 -27 -39 -22 -67 7 -47
30 -70 103 -103 55 -25 93 -59 93 -81 0 -5 -9 -17 -20 -28 -24 -24 -85 -27
-137 -5 -45 19 -43 20 -43 -15 0 -37 27 -50 106 -50 70 0 119 20 138 59 35 67
14 111 -73 153 -82 39 -101 55 -101 83 0 38 33 58 87 53 26 -3 56 -8 66 -12
14 -7 17 -3 17 22 0 18 -6 32 -16 36 -23 9 -125 6 -150 -4z"/>
</g>
</svg>
